<svg xmlns="http://www.w3.org/2000/svg" viewBox="0 0 64 64" width="64" height="64" role="img" aria-label="Jeton">
  <defs>
    <linearGradient id="jetonRim" x1="0" y1="0" x2="1" y2="1">
      <stop offset="0%" stop-color="#FFE9A8"/>
      <stop offset="45%" stop-color="#F5C542"/>
      <stop offset="100%" stop-color="#B8860B"/>
    </linearGradient>
    <linearGradient id="jetonFace" x1="0.2" y1="0" x2="0.8" y2="1">
      <stop offset="0%" stop-color="#FFF6D6"/>
      <stop offset="55%" stop-color="#F7CF5C"/>
      <stop offset="100%" stop-color="#D9A017"/>
    </linearGradient>
    <radialGradient id="jetonGlow" cx="0.35" cy="0.3" r="0.7">
      <stop offset="0%" stop-color="#FFFFFF" stop-opacity="0.85"/>
      <stop offset="60%" stop-color="#FFFFFF" stop-opacity="0"/>
    </radialGradient>
  </defs>

  <circle cx="32" cy="32" r="30" fill="url(#jetonRim)"/>
  <circle cx="32" cy="32" r="24.5" fill="url(#jetonFace)" stroke="#8C6510" stroke-width="1.2" stroke-opacity="0.5"/>

  <g stroke="#8C6510" stroke-opacity="0.45" stroke-width="2.4" stroke-linecap="round">
    <line x1="32" y1="2.6" x2="32" y2="7.6"/>
    <line x1="32" y1="56.4" x2="32" y2="61.4"/>
    <line x1="2.6" y1="32" x2="7.6" y2="32"/>
    <line x1="56.4" y1="32" x2="61.4" y2="32"/>
    <line x1="11.2" y1="11.2" x2="14.7" y2="14.7"/>
    <line x1="49.3" y1="49.3" x2="52.8" y2="52.8"/>
    <line x1="52.8" y1="11.2" x2="49.3" y2="14.7"/>
    <line x1="14.7" y1="49.3" x2="11.2" y2="52.8"/>
  </g>

  <path d="M32 13.5 L35.6 25.2 L47.5 25.2 L37.9 32.4 L41.6 44.1 L32 36.9 L22.4 44.1 L26.1 32.4 L16.5 25.2 L28.4 25.2 Z"
        fill="#7A4E00" fill-opacity="0.18"/>
  <circle cx="32" cy="32" r="10.5" fill="none" stroke="#8C6510" stroke-width="2" stroke-opacity="0.7"/>
  <path d="M32 23.5 L34.1 29.9 L40.8 29.9 L35.4 33.9 L37.4 40.3 L32 36.3 L26.6 40.3 L28.6 33.9 L23.2 29.9 L29.9 29.9 Z"
        fill="#FFFDF2" stroke="#8C6510" stroke-width="0.8" stroke-opacity="0.6"/>

  <circle cx="32" cy="32" r="30" fill="url(#jetonGlow)"/>
</svg>
